# xmcd CD database file
#
# Track frame offsets:
#	150
#	42520
#	61148
#	86169
#	121138
#	147192
#
# Disc length: 2696 seconds
#
# Revision: 0
# Processed by: cddbd v1.5.2PL0 Copyright (c) Steve Scherf et al.
# Submitted via: Feurio! 1.68 - http://www.feurio.com
#
DISCID=4e0a8606
DTITLE=Albert Collins - World Music Theater   Tinley Park, IL   06-25-93
DYEAR=1900
DGENRE=
TTITLE0=Albert Collins and The Icebreakers - intro > instrumental
TTITLE1=Albert Collins and The Icebreakers - Trying To Work My Way Back Home
TTITLE2=Albert Collins and The Icebreakers - Tired Man
TTITLE3=Albert Collins and The Icebreakers - Put The Shoe On The Other Foot
TTITLE4=Albert Collins and The Icebreakers - Black Cat Bone
TTITLE5=Albert Collins and The Icebreakers - If Trouble Was Money
EXTD=
EXTT0=
EXTT1=
EXTT2=
EXTT3=
EXTT4=
EXTT5=
PLAYORDER=
